<?xml version="1.0" encoding="utf-8"?>
<!-- Generator: Adobe Illustrator 19.2.0, SVG Export Plug-In . SVG Version: 6.00 Build 0)  -->
<svg version="1.1" id="Layer_1" xmlns="http://www.w3.org/2000/svg" xmlns:xlink="http://www.w3.org/1999/xlink" x="0px" y="0px"
	 viewBox="0 0 828 187.7" style="enable-background:new 0 0 828 187.7;" xml:space="preserve">
<style type="text/css">
	.st0{fill:#CEE9E0;}
	.st1{fill:#2B3289;}
	.st2{fill:#EE462F;}
	.st3{fill:#FFFAF3;}
	.st4{font-family:'ArialMT';}
	.st5{font-size:44.6452px;}
</style>
<rect class="st0" width="828" height="187.3"/>
<path class="st1" d="M152.3,30.6H126V4.3h26.3V30.6z M127.4,29.1h23.3V5.8h-23.3V29.1z"/>
<path class="st1" d="M629.3,112.3l-19.6-17.6l17.6-19.6l19.6,17.6L629.3,112.3z M611.8,94.6l17.3,15.6l15.6-17.4l-17.2-15.6
	L611.8,94.6z"/>
<path class="st1" d="M440.8,34.7h-26.3V8.3h26.3V34.7z M415.8,33.2h23.4V9.8H416v23.4H415.8z"/>
<path class="st2" d="M191.6,187.7L173,169.1l18.6-18.6l18.6,18.6L191.6,187.7z M175.1,169l16.5,16.5l16.5-16.5l-16.5-16.5L175.1,169
	z"/>
<path class="st2" d="M704.5,73.7h-26.3V47.4h26.3V73.7z M679.6,72.2h23.3V48.9h-23.3V72.2z"/>
<path class="st1" d="M249.1,42.2h-7.5v-9.4h-9.4v-7.5h9.4v-9.4h7.5v9.4h9.4v7.5h-9.4V42.2z M243.1,40.7h4.5v-9.4h9.4v-4.5h-9.4v-9.4
	h-4.5v9.4h-9.4v4.5h9.4V40.7z"/>
<path class="st1" d="M533.4,186.9h-7.5v-9.4h-9.4V170h9.4v-9.4h7.5v9.4h9.4v7.5h-9.4V186.9z M527.3,185.4h4.5V176h9.4v-4.5h-9.4
	v-9.4h-4.5v9.4h-9.4v4.5h9.4V185.4z"/>
<path class="st1" d="M34.6,46.9l-4-8.5l-8.5,4l-3.2-6.8l8.5-4l-4-8.5l6.8-3.2l4,8.5l8.5-4l3.2,6.8l-8.5,4l4,8.5L34.6,46.9z
	 M31.3,36.4l4,8.5l4.1-1.9l-4-8.5l8.5-4L42,26.4l-8.5,4l-4-8.5l-4.1,1.9l4,8.5l-8.5,4l1.9,4.1L31.3,36.4z"/>
<path class="st1" d="M246,164.4c-3.8,0-7-3.1-7-7s3.1-7,7-7s7,3.1,7,7S249.8,164.4,246,164.4z M246,151.9c-3,0-5.5,2.5-5.5,5.5
	s2.5,5.5,5.5,5.5s5.5-2.5,5.5-5.5S249,151.9,246,151.9z"/>
<path class="st2" d="M651.8,182.4c-3.8,0-7-3.1-7-7s3.1-7,7-7s7,3.1,7,7S655.6,182.4,651.8,182.4z M651.8,170c-3,0-5.5,2.5-5.5,5.5
	s2.5,5.5,5.5,5.5s5.5-2.5,5.5-5.5C657.2,172.4,654.8,170,651.8,170z"/>
<path class="st2" d="M124.3,67.5c-3.8,0-7-3.1-7-7s3.1-7,7-7s7,3.1,7,7S128.1,67.5,124.3,67.5z M124.3,55.1c-3,0-5.5,2.5-5.5,5.5
	s2.5,5.5,5.5,5.5s5.5-2.5,5.5-5.5C129.8,57.5,127.3,55.1,124.3,55.1z"/>
<path class="st1" d="M345.4,28.4c-3.8,0-7-3.1-7-7s3.1-7,7-7s7,3.1,7,7S349.3,28.4,345.4,28.4z M345.4,16c-3,0-5.5,2.5-5.5,5.5
	c0,3,2.5,5.5,5.5,5.5s5.5-2.5,5.5-5.5S348.4,16,345.4,16z"/>
<path class="st1" d="M628.3,17.4c-3.8,0-7-3.1-7-7s3.1-7,7-7s7,3.1,7,7S632.1,17.4,628.3,17.4z M628.3,4.9c-3,0-5.5,2.5-5.5,5.5
	s2.5,5.5,5.5,5.5s5.5-2.5,5.5-5.5S631.3,4.9,628.3,4.9z"/>
<path class="st1" d="M815.5,183.1c-3.8,0-7-3.1-7-7s3.1-7,7-7s7,3.1,7,7S819.3,183.1,815.5,183.1z M815.5,170.7
	c-3,0-5.5,2.5-5.5,5.5s2.5,5.5,5.5,5.5s5.5-2.5,5.5-5.5C821,173.1,818.5,170.7,815.5,170.7z"/>
<path class="st2" d="M126.7,144.4H99.4l13.6-27.3L126.7,144.4z M101.9,142.9h22.4l-11.2-22.4L101.9,142.9z"/>
<path class="st1" d="M814.3,73.7H788V47.4h26.3V73.7z M789.4,72.2h23.3V48.9h-23.3V72.2z"/>
<path class="st2" d="M736.1,155l-19.3-19.3l28.9-9.6L736.1,155z M719.6,136.4l15.9,15.9l7.9-23.8L719.6,136.4z"/>
<path class="st2" d="M200.6,114.2l-19.3-19.3l28.9-9.6L200.6,114.2z M184,95.6l15.9,15.9l7.9-23.8L184,95.6z"/>
<path class="st1" d="M63.5,112.7L63.5,112.7h-0.3c-0.1,0-0.3,0-0.4-0.1c-0.7-0.2-2.2-1-3.9-3.6c-0.2-0.3-0.4-0.6-0.6-1
	c-1-1.6-2.1-3.3-3.4-3.5c0,0,0,0-0.1,0c-1.3,0-2.6,1.5-3.8,2.9c-0.3,0.3-0.5,0.6-0.8,0.9c-2.1,2.3-3.7,2.7-4.5,2.8
	c-0.2,0-0.3,0-0.4,0h-0.2c-0.1,0-0.3,0-0.4-0.1c-0.7-0.2-2.2-1-3.9-3.6c-0.2-0.3-0.4-0.6-0.6-1c-1-1.6-2.1-3.3-3.4-3.5
	c-1.3-0.1-2.6,1.5-3.9,2.9c-0.3,0.3-0.5,0.6-0.8,0.9c-2.1,2.3-3.7,2.7-4.5,2.8c-0.2,0-0.3,0-0.4,0H27c-0.1,0-0.3,0-0.4-0.1
	c-0.7-0.2-2.2-1-3.9-3.6c-0.2-0.3-0.4-0.6-0.6-1c-1-1.6-2.1-3.3-3.4-3.5c-1.3-0.1-2.6,1.5-3.9,2.9c-0.3,0.3-0.5,0.6-0.8,0.9
	c-2.1,2.3-3.7,2.7-4.5,2.8c-0.2,0-0.3,0-0.4,0l0.1-1.5c0,0,0.1,0,0.2,0c0.5,0,1.7-0.4,3.6-2.4c0.2-0.3,0.5-0.5,0.8-0.8
	c1.4-1.6,3.1-3.5,5.1-3.4c2.1,0.3,3.4,2.4,4.6,4.2c0.2,0.3,0.4,0.6,0.6,1c1.5,2.3,2.7,2.8,3.1,2.9c0.1,0,0.1,0,0.2,0h0.2h0.1
	c0.5,0,1.7-0.4,3.6-2.4c0.2-0.3,0.5-0.5,0.8-0.8c1.4-1.6,3.1-3.5,5.1-3.4c2.1,0.3,3.4,2.4,4.6,4.2c0.2,0.3,0.4,0.6,0.6,0.9
	c1.5,2.3,2.7,2.8,3.1,2.9c0.1,0,0.1,0,0.2,0h0.1l0,0h0.1c0.5,0,1.7-0.4,3.6-2.4c0.2-0.3,0.5-0.5,0.8-0.8c1.4-1.6,3.1-3.5,5.1-3.4
	c2.1,0.3,3.4,2.4,4.6,4.2c0.2,0.3,0.4,0.6,0.6,0.9c1.5,2.3,2.7,2.8,3.1,2.9c0.1,0,0.1,0,0.2,0H64h0.1c0.5,0,1.7-0.4,3.6-2.4
	c0.2-0.3,0.5-0.5,0.8-0.8c1.4-1.6,3.1-3.4,5.1-3.4l-0.1,1.5c-1.3-0.1-2.7,1.4-4,2.9c-0.3,0.3-0.5,0.6-0.8,0.9
	c-2.1,2.3-3.7,2.7-4.5,2.8C63.7,112.7,63.6,112.7,63.5,112.7z"/>
<path class="st2" d="M364.5,173.7l-0.3-1.5c0,0,0.1,0,0.2,0c0.4-0.2,1.6-0.8,2.9-3.2c0.2-0.3,0.4-0.7,0.5-1c1-1.9,2.2-4.1,4.2-4.5
	c2.1-0.2,3.9,1.5,5.4,3c0.3,0.3,0.5,0.5,0.8,0.8c2,1.8,3.3,2.1,3.7,2.1c0.1,0,0.1,0,0.2,0h0.1h0.1c0.4-0.2,1.6-0.8,2.9-3.2
	c0.2-0.3,0.4-0.7,0.5-1c1-1.9,2.2-4.1,4.2-4.5c2.1-0.2,3.9,1.5,5.4,3c0.3,0.3,0.5,0.5,0.8,0.8c2,1.8,3.3,2.1,3.7,2.1
	c0.1,0,0.1,0,0.2,0h0.1h0.1c0.4-0.2,1.6-0.8,2.9-3.2c0.2-0.3,0.4-0.6,0.5-1c1-1.9,2.2-4.1,4.2-4.5c2.1-0.2,3.9,1.5,5.4,3
	c0.3,0.3,0.5,0.5,0.8,0.8c2,1.8,3.3,2.1,3.7,2.1c0.1,0,0.1,0,0.2,0h0.2h0.1c0.4-0.2,1.6-0.8,2.9-3.2c0.2-0.3,0.4-0.7,0.5-1
	c1-1.9,2.2-4.1,4.2-4.5l0.3,1.5c-1.3,0.3-2.3,2-3.2,3.8c-0.2,0.3-0.4,0.7-0.5,1c-1.5,2.7-3,3.6-3.7,3.8c-0.2,0.1-0.3,0.1-0.4,0.1
	h-0.2c-0.1,0-0.3,0-0.4,0c-0.8,0-2.4-0.4-4.7-2.5c-0.3-0.3-0.6-0.5-0.8-0.8c-1.4-1.3-2.8-2.8-4.2-2.6c-1.2,0.3-2.2,2-3.1,3.8
	c-0.2,0.3-0.4,0.7-0.5,1c-1.5,2.7-3,3.6-3.7,3.8c-0.2,0.1-0.3,0.1-0.4,0.1h-0.2c-0.1,0-0.3,0-0.5,0c-0.8,0-2.4-0.4-4.7-2.5
	c-0.3-0.3-0.6-0.5-0.8-0.8c-1.4-1.3-2.8-2.8-4.2-2.6c-1.2,0.3-2.2,2-3.1,3.7c-0.2,0.3-0.4,0.7-0.6,1c-1.5,2.7-3,3.6-3.7,3.8
	c-0.2,0.1-0.3,0.1-0.4,0.1h-0.2c-0.1,0-0.3,0-0.5,0c-0.8,0-2.4-0.4-4.7-2.5c-0.3-0.3-0.6-0.5-0.8-0.8c-1.4-1.3-2.8-2.8-4.2-2.6
	c-1.2,0.3-2.2,2-3.1,3.7c-0.2,0.3-0.4,0.7-0.5,1c-1.5,2.7-3,3.6-3.7,3.8C364.7,173.7,364.6,173.7,364.5,173.7z"/>
<path class="st2" d="M713.3,21.4l-0.3-1.5h0.1c0.4-0.2,1.6-0.8,2.9-3.2c0.2-0.3,0.4-0.7,0.5-1c1-1.9,2.2-4.1,4.2-4.5
	c2.1-0.2,3.9,1.5,5.4,3c0.3,0.3,0.5,0.5,0.8,0.8c2,1.8,3.3,2.1,3.7,2.1c0.1,0,0.1,0,0.2,0h0.1h0.1c0.4-0.2,1.6-0.8,2.9-3.2
	c0.2-0.3,0.4-0.7,0.5-1c1-1.9,2.2-4.1,4.2-4.5c2.1-0.2,3.9,1.5,5.4,3c0.3,0.3,0.5,0.5,0.8,0.8c2,1.8,3.3,2.1,3.7,2.1
	c0.1,0,0.1,0,0.2,0h0.1h0.1c0.4-0.2,1.6-0.8,2.9-3.2c0.2-0.3,0.4-0.7,0.5-1c1-1.9,2.2-4.1,4.2-4.5c2.1-0.2,3.9,1.5,5.4,3
	c0.3,0.3,0.5,0.5,0.8,0.8c2,1.8,3.3,2.1,3.7,2.1c0.1,0,0.1,0,0.2,0h0.1h0.1c0.4-0.2,1.6-0.8,2.9-3.2c0.2-0.3,0.4-0.6,0.5-1
	c1-1.9,2.2-4.1,4.2-4.5l0.3,1.5c-1.3,0.3-2.3,2-3.2,3.8c-0.2,0.3-0.4,0.7-0.5,1c-1.5,2.7-3,3.6-3.7,3.8c-0.2,0.1-0.3,0.1-0.4,0.1
	h-0.2c-0.1,0-0.3,0-0.5,0c-0.8,0-2.4-0.4-4.7-2.5c-0.3-0.3-0.6-0.5-0.8-0.8c-1.4-1.3-2.8-2.7-4.2-2.6c-1.2,0.3-2.2,2-3.1,3.7
	c-0.2,0.3-0.4,0.7-0.6,1c-1.5,2.7-3,3.6-3.7,3.8c-0.2,0.1-0.3,0.1-0.4,0.1h-0.2c-0.1,0-0.3,0-0.4,0c-0.8,0-2.4-0.4-4.7-2.5
	c-0.3-0.3-0.6-0.5-0.8-0.8c-1.4-1.3-2.8-2.7-4.2-2.6c-1.2,0.3-2.2,2-3.1,3.7c-0.2,0.3-0.4,0.7-0.5,1c-1.5,2.7-3,3.6-3.7,3.8
	c-0.2,0.1-0.3,0.1-0.4,0.1h-0.2c-0.1,0-0.3,0-0.5,0c-0.8,0-2.4-0.4-4.7-2.5c-0.3-0.3-0.6-0.5-0.8-0.8c-1.4-1.3-2.8-2.7-4.2-2.6
	c-1.2,0.3-2.2,2-3.1,3.7c-0.2,0.3-0.4,0.7-0.5,1c-1.5,2.7-3,3.6-3.7,3.8C713.5,21.4,713.4,21.4,713.3,21.4z"/>
<path class="st2" d="M511.6,33.4l-6.7-6.7l-6.7,6.7l-5.3-5.3l6.7-6.7l-6.7-6.7l5.3-5.3l6.7,6.7l6.7-6.7l5.3,5.3l-6.7,6.7l6.7,6.7
	L511.6,33.4z M505,24.6l6.7,6.7l3.2-3.2l-6.7-6.7l6.7-6.7l-3.2-3.2l-6.7,6.7l-6.7-6.7l-3.2,3.2l6.7,6.7l-6.7,6.7l3.2,3.2L505,24.6z"
	/>
<path class="st2" d="M19.4,179.8h-7.5v-9.4H2.4v-7.5h9.4v-9.4h7.5v9.4h9.4v7.5h-9.4v9.4H19.4z M13.4,178.3h4.5v-9.4h9.4v-4.5h-9.4
	V155h-4.5v9.4H3.9v4.5h9.4v9.4H13.4z"/>
<rect x="249.1" y="67.4" class="st1" width="327.1" height="54.7"/>
<text transform="matrix(1 0 0 1 261.1193 110.2755)" class="st3 st4 st5">Meet Our Staff!</text>
</svg>
